<mxfile host="app.diagrams.net" agent="Mozilla/5.0 (Windows NT 10.0; Win64; x64) AppleWebKit/537.36 (KHTML, like Gecko) Chrome/138.0.0.0 Safari/537.36" version="28.0.7">
  <diagram name="Page-1" id="b0n86uY4JFtTPVabJfog">
    <mxGraphModel dx="1042" dy="535" grid="1" gridSize="10" guides="1" tooltips="1" connect="1" arrows="1" fold="1" page="1" pageScale="1" pageWidth="827" pageHeight="1169" math="0" shadow="0">
      <root>
        <mxCell id="0" />
        <mxCell id="1" parent="0" />
        <mxCell id="vKMCBibGFw7yL1VoIiMP-4" value="" style="edgeStyle=orthogonalEdgeStyle;rounded=0;orthogonalLoop=1;jettySize=auto;html=1;" parent="1" source="vKMCBibGFw7yL1VoIiMP-2" target="vKMCBibGFw7yL1VoIiMP-3" edge="1">
          <mxGeometry relative="1" as="geometry" />
        </mxCell>
        <mxCell id="vKMCBibGFw7yL1VoIiMP-2" value="User Asks to inquire" style="text;html=1;align=center;verticalAlign=middle;resizable=0;points=[];autosize=1;strokeColor=#6c8ebf;fillColor=#dae8fc;" parent="1" vertex="1">
          <mxGeometry x="150" y="59" width="130" height="30" as="geometry" />
        </mxCell>
        <mxCell id="vKMCBibGFw7yL1VoIiMP-6" value="" style="edgeStyle=orthogonalEdgeStyle;rounded=0;orthogonalLoop=1;jettySize=auto;html=1;" parent="1" source="vKMCBibGFw7yL1VoIiMP-3" target="vKMCBibGFw7yL1VoIiMP-5" edge="1">
          <mxGeometry relative="1" as="geometry">
            <Array as="points">
              <mxPoint x="535" y="165" />
            </Array>
          </mxGeometry>
        </mxCell>
        <mxCell id="vKMCBibGFw7yL1VoIiMP-8" value="" style="edgeStyle=orthogonalEdgeStyle;rounded=0;orthogonalLoop=1;jettySize=auto;html=1;" parent="1" source="vKMCBibGFw7yL1VoIiMP-3" target="vKMCBibGFw7yL1VoIiMP-7" edge="1">
          <mxGeometry relative="1" as="geometry" />
        </mxCell>
        <mxCell id="vKMCBibGFw7yL1VoIiMP-3" value="Ask what for pol,pod,delivery and pickup address." style="text;html=1;align=center;verticalAlign=middle;resizable=0;points=[];autosize=1;strokeColor=#d6b656;fillColor=#fff2cc;" parent="1" vertex="1">
          <mxGeometry x="70" y="150" width="290" height="30" as="geometry" />
        </mxCell>
        <mxCell id="vKMCBibGFw7yL1VoIiMP-12" value="" style="edgeStyle=orthogonalEdgeStyle;rounded=0;orthogonalLoop=1;jettySize=auto;html=1;entryX=0.654;entryY=0.013;entryDx=0;entryDy=0;entryPerimeter=0;" parent="1" source="vKMCBibGFw7yL1VoIiMP-5" target="vKMCBibGFw7yL1VoIiMP-31" edge="1">
          <mxGeometry relative="1" as="geometry">
            <mxPoint x="530" y="171" as="targetPoint" />
            <Array as="points">
              <mxPoint x="736" y="126" />
            </Array>
          </mxGeometry>
        </mxCell>
        <mxCell id="vKMCBibGFw7yL1VoIiMP-5" value="User Asks for Port Suggestions" style="text;html=1;align=center;verticalAlign=middle;resizable=0;points=[];autosize=1;strokeColor=#6c8ebf;fillColor=#dae8fc;" parent="1" vertex="1">
          <mxGeometry x="440" y="111" width="190" height="30" as="geometry" />
        </mxCell>
        <mxCell id="vKMCBibGFw7yL1VoIiMP-10" value="" style="edgeStyle=orthogonalEdgeStyle;rounded=0;orthogonalLoop=1;jettySize=auto;html=1;" parent="1" source="vKMCBibGFw7yL1VoIiMP-7" target="vKMCBibGFw7yL1VoIiMP-9" edge="1">
          <mxGeometry relative="1" as="geometry" />
        </mxCell>
        <mxCell id="vKMCBibGFw7yL1VoIiMP-7" value="If all details are provided,&lt;br&gt;ask for company, name email and phone" style="text;html=1;align=center;verticalAlign=middle;resizable=0;points=[];autosize=1;strokeColor=#d6b656;fillColor=#fff2cc;" parent="1" vertex="1">
          <mxGeometry x="95" y="260" width="240" height="40" as="geometry" />
        </mxCell>
        <mxCell id="vKMCBibGFw7yL1VoIiMP-21" value="" style="edgeStyle=orthogonalEdgeStyle;rounded=0;orthogonalLoop=1;jettySize=auto;html=1;" parent="1" source="vKMCBibGFw7yL1VoIiMP-9" target="vKMCBibGFw7yL1VoIiMP-20" edge="1">
          <mxGeometry relative="1" as="geometry" />
        </mxCell>
        <mxCell id="vKMCBibGFw7yL1VoIiMP-23" value="" style="edgeStyle=orthogonalEdgeStyle;rounded=0;orthogonalLoop=1;jettySize=auto;html=1;" parent="1" source="vKMCBibGFw7yL1VoIiMP-9" target="vKMCBibGFw7yL1VoIiMP-22" edge="1">
          <mxGeometry relative="1" as="geometry" />
        </mxCell>
        <mxCell id="vKMCBibGFw7yL1VoIiMP-9" value="Ask for package summary" style="text;html=1;align=center;verticalAlign=middle;resizable=0;points=[];autosize=1;strokeColor=#d79b00;fillColor=#ffe6cc;" parent="1" vertex="1">
          <mxGeometry x="135" y="384" width="160" height="30" as="geometry" />
        </mxCell>
        <mxCell id="vKMCBibGFw7yL1VoIiMP-14" value="" style="edgeStyle=orthogonalEdgeStyle;rounded=0;orthogonalLoop=1;jettySize=auto;html=1;" parent="1" source="vKMCBibGFw7yL1VoIiMP-11" target="vKMCBibGFw7yL1VoIiMP-15" edge="1">
          <mxGeometry relative="1" as="geometry">
            <mxPoint x="530" y="250" as="targetPoint" />
          </mxGeometry>
        </mxCell>
        <mxCell id="vKMCBibGFw7yL1VoIiMP-11" value="if api returns some ports, give them to user and ask to choose" style="text;html=1;align=center;verticalAlign=middle;resizable=0;points=[];autosize=1;strokeColor=#d6b656;fillColor=#fff2cc;" parent="1" vertex="1">
          <mxGeometry x="355" y="200" width="350" height="30" as="geometry" />
        </mxCell>
        <mxCell id="vKMCBibGFw7yL1VoIiMP-19" style="edgeStyle=orthogonalEdgeStyle;rounded=0;orthogonalLoop=1;jettySize=auto;html=1;" parent="1" source="vKMCBibGFw7yL1VoIiMP-15" target="vKMCBibGFw7yL1VoIiMP-7" edge="1">
          <mxGeometry relative="1" as="geometry" />
        </mxCell>
        <mxCell id="vKMCBibGFw7yL1VoIiMP-15" value="once user has chosen store it" style="text;html=1;align=center;verticalAlign=middle;resizable=0;points=[];autosize=1;strokeColor=#6c8ebf;fillColor=#dae8fc;" parent="1" vertex="1">
          <mxGeometry x="440" y="265" width="180" height="30" as="geometry" />
        </mxCell>
        <mxCell id="vKMCBibGFw7yL1VoIiMP-20" value="Ask for company,name, emial and contact" style="text;html=1;align=center;verticalAlign=middle;resizable=0;points=[];autosize=1;strokeColor=#d6b656;fillColor=#fff2cc;" parent="1" vertex="1">
          <mxGeometry x="90" y="500" width="250" height="30" as="geometry" />
        </mxCell>
        <mxCell id="vKMCBibGFw7yL1VoIiMP-26" value="" style="edgeStyle=orthogonalEdgeStyle;rounded=0;orthogonalLoop=1;jettySize=auto;html=1;" parent="1" source="vKMCBibGFw7yL1VoIiMP-22" target="vKMCBibGFw7yL1VoIiMP-25" edge="1">
          <mxGeometry relative="1" as="geometry" />
        </mxCell>
        <mxCell id="vKMCBibGFw7yL1VoIiMP-28" value="" style="edgeStyle=orthogonalEdgeStyle;rounded=0;orthogonalLoop=1;jettySize=auto;html=1;entryX=-0.003;entryY=0.507;entryDx=0;entryDy=0;entryPerimeter=0;" parent="1" source="vKMCBibGFw7yL1VoIiMP-22" target="vKMCBibGFw7yL1VoIiMP-29" edge="1">
          <mxGeometry relative="1" as="geometry">
            <mxPoint x="605" y="479" as="targetPoint" />
          </mxGeometry>
        </mxCell>
        <mxCell id="vKMCBibGFw7yL1VoIiMP-33" value="" style="edgeStyle=orthogonalEdgeStyle;rounded=0;orthogonalLoop=1;jettySize=auto;html=1;" parent="1" source="vKMCBibGFw7yL1VoIiMP-22" target="vKMCBibGFw7yL1VoIiMP-27" edge="1">
          <mxGeometry relative="1" as="geometry" />
        </mxCell>
        <mxCell id="vKMCBibGFw7yL1VoIiMP-22" value="Ask for container Type,&amp;nbsp;" style="text;html=1;align=center;verticalAlign=middle;resizable=0;points=[];autosize=1;strokeColor=#d79b00;fillColor=#ffe6cc;" parent="1" vertex="1">
          <mxGeometry x="375" y="384" width="150" height="30" as="geometry" />
        </mxCell>
        <mxCell id="vKMCBibGFw7yL1VoIiMP-25" value="if GP: Ask weight" style="text;html=1;align=center;verticalAlign=middle;resizable=0;points=[];autosize=1;strokeColor=#d79b00;fillColor=#ffe6cc;" parent="1" vertex="1">
          <mxGeometry x="625" y="384" width="110" height="30" as="geometry" />
        </mxCell>
        <mxCell id="vKMCBibGFw7yL1VoIiMP-27" value="if SP: Ask for containers and weights&amp;nbsp;" style="text;html=1;align=center;verticalAlign=middle;resizable=0;points=[];autosize=1;strokeColor=#d79b00;fillColor=#ffe6cc;" parent="1" vertex="1">
          <mxGeometry x="340" y="540" width="220" height="30" as="geometry" />
        </mxCell>
        <mxCell id="vKMCBibGFw7yL1VoIiMP-29" value="If Break Bulk, We need dims, CBM (vol)" style="text;html=1;align=center;verticalAlign=middle;resizable=0;points=[];autosize=1;strokeColor=#d6b656;fillColor=#fff2cc;" parent="1" vertex="1">
          <mxGeometry x="505" y="470" width="230" height="30" as="geometry" />
        </mxCell>
        <mxCell id="vKMCBibGFw7yL1VoIiMP-30" value="RFQ Chat Bot Workflow" style="text;html=1;align=center;verticalAlign=middle;whiteSpace=wrap;rounded=0;fontSize=18;fontStyle=1;fillColor=#ffe6cc;strokeColor=#d79b00;dashed=1;dashPattern=8 8;" parent="1" vertex="1">
          <mxGeometry x="145" y="10" width="495" height="30" as="geometry" />
        </mxCell>
        <mxCell id="vKMCBibGFw7yL1VoIiMP-31" value="Tool Call" style="text;html=1;align=center;verticalAlign=middle;resizable=0;points=[];autosize=1;strokeColor=#d6b656;fillColor=#fff2cc;" parent="1" vertex="1">
          <mxGeometry x="690" y="140" width="70" height="30" as="geometry" />
        </mxCell>
        <mxCell id="vKMCBibGFw7yL1VoIiMP-32" style="edgeStyle=orthogonalEdgeStyle;rounded=0;orthogonalLoop=1;jettySize=auto;html=1;entryX=0.527;entryY=0.04;entryDx=0;entryDy=0;entryPerimeter=0;" parent="1" source="vKMCBibGFw7yL1VoIiMP-31" target="vKMCBibGFw7yL1VoIiMP-11" edge="1">
          <mxGeometry relative="1" as="geometry">
            <Array as="points">
              <mxPoint x="725" y="180" />
              <mxPoint x="540" y="180" />
            </Array>
          </mxGeometry>
        </mxCell>
      </root>
    </mxGraphModel>
  </diagram>
</mxfile>
